# File created by Blade
# Date/Time:  Wed Jan 21 15:55:51 2015
# Frame Rate: 120.000 fps
#------------------------------------------------------
:FULLY-SPECIFIED
:DEGREES
275
root 25.077449 25.607492 -12.548322 -145.276528 15.094973 -186.186771
Spine 64.874936 0.378152 -5.338506
Head -24.248399 1.261113 -4.247680
LeftShoulder 34.224069 -53.663396 -12.810979
LeftArm 33.094627 3.916368 -60.936969
LeftForeArm -34.407829 0.000000 5.923858
LeftHand -5.816908 -0.000000 6.346634
LeftHandThumb1 -26.253704 0.000000 33.147579
RightShoulder 18.133905 13.215258 -14.187766
RightArm 52.725165 7.996198 30.244928
RightForeArm -21.432886 -0.000000 21.942925
RightHand -8.558099 -0.000000 -13.711489
RightHandThumb1 -24.326973 -0.000000 -32.862282
LeftUpLeg -31.854095 36.724113 21.183680
LeftLeg 1.404205 -0.000000 -0.000000
LeftFoot -2.253173 27.101042 -24.304427
LeftToeBase 36.061260 -0.000000 -0.000000
RightUpLeg -94.939276 -2.051555 0.797762
RightLeg 89.141032 -0.000000 -0.000000
RightFoot -50.768261 -26.913422 22.980536
RightToeBase 20.264156 -0.000000 -0.000000
276
root 24.979142 25.654520 -12.498635 -144.524969 15.478841 -185.815483
Spine 64.889126 0.513563 -5.393059
Head -24.445511 1.514454 -4.444157
LeftShoulder 34.392622 -54.098992 -12.910681
LeftArm 33.178423 3.863676 -60.530183
LeftForeArm -34.717007 0.000000 6.092510
LeftHand -5.772117 -0.000000 6.424059
LeftHandThumb1 -26.253704 0.000000 33.147579
RightShoulder 18.196243 13.301801 -14.640920
RightArm 52.770739 8.334737 29.959589
RightForeArm -21.507845 -0.000000 22.389539
RightHand -8.857591 -0.000000 -14.439262
RightHandThumb1 -24.326973 -0.000000 -32.862282
LeftUpLeg -32.150499 37.155737 21.011490
LeftLeg 1.087873 -0.000000 -0.000000
LeftFoot -2.762567 26.772499 -24.436841
LeftToeBase 36.058500 -0.000000 -0.000000
RightUpLeg -95.602854 -1.890274 0.952755
RightLeg 88.770441 -0.000000 -0.000000
RightFoot -50.196051 -26.437935 22.705500
RightToeBase 20.303967 -0.000000 -0.000000
277
root 24.883573 25.693437 -12.455756 -143.847839 15.835662 -185.420768
Spine 64.960541 0.635820 -5.411316
Head -24.648432 1.793095 -4.706890
LeftShoulder 34.497456 -54.489985 -12.921647
LeftArm 33.247312 3.611937 -60.284666
LeftForeArm -34.803098 -0.000000 6.316460
LeftHand -5.800024 -0.000000 6.599127
LeftHandThumb1 -26.253704 0.000000 33.147579
RightShoulder 18.291009 13.688277 -15.076213
RightArm 52.689989 8.577197 29.974982
RightForeArm -21.555680 -0.000000 22.707026
RightHand -8.911784 -0.000000 -14.975700
RightHandThumb1 -24.326973 -0.000000 -32.862282
LeftUpLeg -32.286067 37.496938 21.018882
LeftLeg 0.820297 -0.000000 -0.000000
LeftFoot -3.422965 26.223179 -24.735151
LeftToeBase 36.124208 -0.000000 -0.000000
RightUpLeg -96.149787 -1.666077 1.064478
RightLeg 88.405976 -0.000000 -0.000000
RightFoot -49.774232 -26.052586 22.522381
RightToeBase 20.477286 -0.000000 -0.000000
278
root 24.786938 25.726464 -12.413938 -143.158016 16.162735 -184.974275
Spine 64.989316 0.768386 -5.363816
Head -24.802721 2.049382 -4.905442
LeftShoulder 34.846603 -54.994447 -13.205340
LeftArm 33.097378 3.465248 -60.074654
LeftForeArm -35.195216 -0.000000 6.552928
LeftHand -5.764331 -0.000000 6.943026
LeftHandThumb1 -26.253704 0.000000 33.147579
RightShoulder 18.404026 14.085596 -15.419644
RightArm 52.593759 8.885447 30.129121
RightForeArm -22.013879 -0.000000 23.038494
RightHand -9.010421 0.000000 -15.363988
RightHandThumb1 -24.326973 -0.000000 -32.862282
LeftUpLeg -32.506892 37.942397 20.980422
LeftLeg 0.575807 -0.000000 -0.000000
LeftFoot -4.104292 25.710225 -24.908768
LeftToeBase 36.190296 -0.000000 -0.000000
RightUpLeg -96.653532 -1.404177 1.203385
RightLeg 87.995796 -0.000000 -0.000000
RightFoot -49.382623 -25.904208 22.223070
RightToeBase 20.527434 -0.000000 -0.000000
279
root 24.685589 25.752146 -12.381193 -142.552013 16.485308 -184.538720
Spine 65.058584 0.875378 -5.297130
Head -24.874363 2.267757 -5.193530
LeftShoulder 34.840475 -55.181936 -13.168762
LeftArm 33.289693 3.108019 -59.873056
LeftForeArm -35.265078 -0.000000 6.710299
LeftHand -5.703278 -0.000000 6.960943
LeftHandThumb1 -26.253704 0.000000 33.147579
RightShoulder 18.463801 14.290575 -15.731386
RightArm 52.536700 9.144216 29.868327
RightForeArm -21.882864 -0.000000 23.435200
RightHand -9.007087 -0.000000 -15.655326
RightHandThumb1 -24.326973 -0.000000 -32.862282
LeftUpLeg -32.649596 38.421604 20.914127
LeftLeg 0.278322 -0.000000 -0.000000
LeftFoot -4.723297 25.362396 -25.068131
LeftToeBase 36.120540 -0.000000 -0.000000
RightUpLeg -97.083135 -1.168901 1.348514
RightLeg 87.627619 -0.000000 -0.000000
RightFoot -49.041705 -25.702787 21.975642
RightToeBase 20.590058 -0.000000 -0.000000
280
root 24.576700 25.783727 -12.346649 -141.969243 16.809738 -184.168687
Spine 65.155812 0.931788 -5.318316
Head -25.020826 2.532664 -5.477018
LeftShoulder 34.879591 -55.483536 -13.160276
LeftArm 33.348312 2.808380 -59.668549
LeftForeArm -35.414172 -0.000000 6.878936
LeftHand -5.520259 0.000000 6.920597
LeftHandThumb1 -26.253704 0.000000 33.147579
RightShoulder 18.561070 14.513324 -16.050917
RightArm 52.521353 9.696556 30.005291
RightForeArm -22.199537 -0.000000 23.932640
RightHand -9.095464 -0.000000 -15.260722
RightHandThumb1 -24.326973 -0.000000 -32.862282
LeftUpLeg -32.702579 38.719421 20.881380
LeftLeg -0.091033 -0.000000 0.000000
LeftFoot -5.452330 25.278279 -25.668293
LeftToeBase 36.129310 -0.000000 -0.000000
RightUpLeg -97.526609 -1.001638 1.476980
RightLeg 87.249949 -0.000000 -0.000000
RightFoot -48.659834 -25.515179 21.751330
RightToeBase 20.614408 -0.000000 -0.000000
281
root 24.466599 25.808777 -12.313519 -141.369250 17.111353 -183.734615
Spine 65.197925 1.001133 -5.230967
Head -25.083458 2.739265 -5.795351
LeftShoulder 35.015090 -55.710852 -13.246540
LeftArm 33.357999 2.361883 -59.562766
LeftForeArm -35.573235 -0.000000 7.112672
LeftHand -5.448895 -0.000000 6.871821
LeftHandThumb1 -26.253704 0.000000 33.147579
RightShoulder 18.626579 14.668575 -16.325534
RightArm 52.465932 10.043800 29.734480
RightForeArm -22.021496 -0.000000 24.372436
RightHand -9.023643 -0.000000 -15.163603
RightHandThumb1 -24.326973 -0.000000 -32.862282
LeftUpLeg -32.926217 39.277659 20.699058
LeftLeg -0.396635 -0.000000 0.000000
LeftFoot -6.160371 25.053523 -26.134108
LeftToeBase 36.289052 -0.000000 -0.000000
RightUpLeg -97.975877 -0.776977 1.638280
RightLeg 86.893069 -0.000000 -0.000000
RightFoot -48.302445 -25.389528 21.603563
RightToeBase 20.722272 -0.000000 -0.000000
282
root 24.349591 25.825759 -12.285924 -140.815358 17.388323 -183.338578
Spine 65.249039 1.082489 -5.062409
Head -25.107429 2.854725 -6.069136
LeftShoulder 35.366061 -55.945137 -13.535888
LeftArm 33.296612 1.942952 -59.521331
LeftForeArm -35.804744 -0.000000 7.382681
LeftHand -5.406310 0.000000 6.906564
LeftHandThumb1 -26.253704 0.000000 33.147579
RightShoulder 18.580837 14.519175 -16.591964
RightArm 52.451469 10.619608 29.366771
RightForeArm -22.153024 -0.000000 25.015071
RightHand -9.218509 -0.000000 -14.717762
RightHandThumb1 -24.326973 -0.000000 -32.862282
LeftUpLeg -33.129204 39.782482 20.498447
LeftLeg -0.702022 -0.000000 0.000000
LeftFoot -6.807215 24.773277 -26.226687
LeftToeBase 36.275261 -0.000000 -0.000000
RightUpLeg -98.417347 -0.616969 1.816971
RightLeg 86.590826 -0.000000 -0.000000
RightFoot -47.990476 -25.275416 21.493242
RightToeBase 20.849498 -0.000000 -0.000000
283
root 24.238014 25.849294 -12.251078 -140.237491 17.683630 -182.922977
Spine 65.278301 1.164903 -5.019064
Head -25.143012 3.071762 -6.319222
LeftShoulder 35.491814 -56.187251 -13.574051
LeftArm 33.239881 1.513272 -59.441881
LeftForeArm -36.057426 -0.000000 7.601376
LeftHand -5.240429 -0.000000 6.648128
LeftHandThumb1 -26.253704 0.000000 33.147579
RightShoulder 18.660769 14.537217 -16.862700
RightArm 52.340992 11.074382 29.036354
RightForeArm -21.863519 -0.000000 25.607741
RightHand -9.074560 -0.000000 -14.409846
RightHandThumb1 -24.326973 -0.000000 -32.862282
LeftUpLeg -33.369979 40.362747 20.265410
LeftLeg -1.025417 -0.000000 0.000000
LeftFoot -7.329760 24.487120 -26.402556
LeftToeBase 36.394683 -0.000000 -0.000000
RightUpLeg -98.865411 -0.351334 1.936412
RightLeg 86.250381 -0.000000 -0.000000
RightFoot -47.645002 -25.162497 21.603692
RightToeBase 20.630492 -0.000000 -0.000000
284
root 24.115173 25.875018 -12.215414 -139.625344 17.942454 -182.548663
Spine 65.244201 1.160483 -4.922084
Head -25.163036 3.273714 -6.700716
LeftShoulder 35.868730 -56.476847 -13.961071
LeftArm 33.165288 1.243327 -59.282446
LeftForeArm -36.196897 -0.000000 7.684891
LeftHand -5.233592 -0.000000 6.554988
LeftHandThumb1 -26.253704 0.000000 33.147579
RightShoulder 18.696812 14.592670 -17.212562
RightArm 52.171477 11.428665 28.727031
RightForeArm -21.799505 -0.000000 26.243948
RightHand -9.212547 -0.000000 -14.146651
RightHandThumb1 -24.326973 -0.000000 -32.862282
LeftUpLeg -33.407197 40.548087 20.254719
LeftLeg -1.524035 -0.000000 0.000000
LeftFoot -7.914881 24.562251 -26.495749
LeftToeBase 36.430938 -0.000000 -0.000000
RightUpLeg -99.351325 -0.263114 2.187867
RightLeg 85.884797 -0.000000 -0.000000
RightFoot -47.287714 -25.137082 21.289167
RightToeBase 20.943208 -0.000000 -0.000000
